<svg width="511" height="152" viewBox="0 0 511 152" fill="none" xmlns="http://www.w3.org/2000/svg">
<path d="M73.8899 76.968C73.6019 77.448 73.2819 77.816 72.9299 78.072C72.6099 78.296 72.2099 78.408 71.7299 78.408C71.1859 78.408 70.5459 78.136 69.8099 77.592C69.0739 77.048 68.1459 76.456 67.0259 75.816C65.9379 75.144 64.6099 74.536 63.0419 73.992C61.5059 73.448 59.6339 73.176 57.4259 73.176C55.3459 73.176 53.5059 73.464 51.9059 74.04C50.3379 74.584 49.0099 75.336 47.9219 76.296C46.8659 77.256 46.0659 78.392 45.5219 79.704C44.9779 80.984 44.7059 82.376 44.7059 83.88C44.7059 85.8 45.1699 87.4 46.0979 88.68C47.0579 89.928 48.3059 91 49.8419 91.896C51.4099 92.792 53.1699 93.576 55.1219 94.248C57.1059 94.888 59.1219 95.56 61.1699 96.264C63.2499 96.968 65.2659 97.768 67.2179 98.664C69.2019 99.528 70.9619 100.632 72.4979 101.976C74.0659 103.32 75.3139 104.968 76.2419 106.92C77.2019 108.872 77.6819 111.272 77.6819 114.12C77.6819 117.128 77.1699 119.96 76.1459 122.616C75.1219 125.24 73.6179 127.528 71.6339 129.48C69.6819 131.432 67.2659 132.968 64.3859 134.088C61.5379 135.208 58.2899 135.768 54.6419 135.768C50.1619 135.768 46.0979 134.968 42.4499 133.368C38.8019 131.736 35.6819 129.544 33.0899 126.792L35.7779 122.376C36.0339 122.024 36.3379 121.736 36.6899 121.512C37.0739 121.256 37.4899 121.128 37.9379 121.128C38.3539 121.128 38.8179 121.304 39.3299 121.656C39.8739 121.976 40.4819 122.392 41.1539 122.904C41.8259 123.416 42.5939 123.976 43.4579 124.584C44.3219 125.192 45.2979 125.752 46.3859 126.264C47.5059 126.776 48.7699 127.208 50.1779 127.56C51.5859 127.88 53.1699 128.04 54.9299 128.04C57.1379 128.04 59.1059 127.736 60.8339 127.128C62.5619 126.52 64.0179 125.672 65.2019 124.584C66.4179 123.464 67.3459 122.136 67.9859 120.6C68.6259 119.064 68.9459 117.352 68.9459 115.464C68.9459 113.384 68.4659 111.688 67.5059 110.376C66.5779 109.032 65.3459 107.912 63.8099 107.016C62.2739 106.12 60.5139 105.368 58.5299 104.76C56.5459 104.12 54.5299 103.48 52.4819 102.84C50.4339 102.168 48.4179 101.4 46.4339 100.536C44.4499 99.672 42.6899 98.552 41.1539 97.176C39.6179 95.8 38.3699 94.088 37.4099 92.04C36.4819 89.96 36.0179 87.4 36.0179 84.36C36.0179 81.928 36.4819 79.576 37.4099 77.304C38.3699 75.032 39.7459 73.016 41.5379 71.256C43.3619 69.496 45.5859 68.088 48.2099 67.032C50.8659 65.976 53.9059 65.448 57.3299 65.448C61.1699 65.448 64.6579 66.056 67.7939 67.272C70.9619 68.488 73.7459 70.248 76.1459 72.552L73.8899 76.968ZM96.3756 123.288C97.9436 125.4 99.6556 126.888 101.512 127.752C103.368 128.616 105.448 129.048 107.752 129.048C112.296 129.048 115.784 127.432 118.216 124.2C120.648 120.968 121.864 116.36 121.864 110.376C121.864 107.208 121.576 104.488 121 102.216C120.456 99.944 119.656 98.088 118.6 96.648C117.544 95.176 116.248 94.104 114.712 93.432C113.176 92.76 111.432 92.424 109.48 92.424C106.696 92.424 104.248 93.064 102.136 94.344C100.056 95.624 98.1356 97.432 96.3756 99.768V123.288ZM95.9436 93.912C97.9916 91.384 100.36 89.352 103.048 87.816C105.736 86.28 108.808 85.512 112.264 85.512C115.08 85.512 117.624 86.056 119.896 87.144C122.168 88.2 124.104 89.784 125.704 91.896C127.304 93.976 128.536 96.568 129.4 99.672C130.264 102.776 130.696 106.344 130.696 110.376C130.696 113.96 130.216 117.304 129.256 120.408C128.296 123.48 126.904 126.152 125.08 128.424C123.288 130.664 121.08 132.44 118.456 133.752C115.864 135.032 112.936 135.672 109.672 135.672C106.696 135.672 104.136 135.176 101.992 134.184C99.8796 133.16 98.0076 131.752 96.3756 129.96V151.464H87.7836V86.376H92.9196C94.1356 86.376 94.8876 86.968 95.1756 88.152L95.9436 93.912ZM162.092 85.608C165.644 85.608 168.844 86.2 171.692 87.384C174.54 88.568 176.972 90.248 178.988 92.424C181.004 94.6 182.54 97.24 183.596 100.344C184.684 103.416 185.228 106.856 185.228 110.664C185.228 114.504 184.684 117.96 183.596 121.032C182.54 124.104 181.004 126.728 178.988 128.904C176.972 131.08 174.54 132.76 171.692 133.944C168.844 135.096 165.644 135.672 162.092 135.672C158.508 135.672 155.276 135.096 152.396 133.944C149.548 132.76 147.116 131.08 145.1 128.904C143.084 126.728 141.532 124.104 140.444 121.032C139.388 117.96 138.86 114.504 138.86 110.664C138.86 106.856 139.388 103.416 140.444 100.344C141.532 97.24 143.084 94.6 145.1 92.424C147.116 90.248 149.548 88.568 152.396 87.384C155.276 86.2 158.508 85.608 162.092 85.608ZM162.092 129C166.892 129 170.476 127.4 172.844 124.2C175.212 120.968 176.396 116.472 176.396 110.712C176.396 104.92 175.212 100.408 172.844 97.176C170.476 93.944 166.892 92.328 162.092 92.328C159.66 92.328 157.532 92.744 155.708 93.576C153.916 94.408 152.412 95.608 151.196 97.176C150.012 98.744 149.116 100.68 148.508 102.984C147.932 105.256 147.644 107.832 147.644 110.712C147.644 116.472 148.828 120.968 151.196 124.2C153.596 127.4 157.228 129 162.092 129ZM204.177 96.12C205.713 92.792 207.601 90.2 209.841 88.344C212.081 86.456 214.817 85.512 218.049 85.512C219.073 85.512 220.049 85.624 220.977 85.848C221.937 86.072 222.785 86.424 223.521 86.904L222.897 93.288C222.705 94.088 222.225 94.488 221.457 94.488C221.009 94.488 220.353 94.392 219.489 94.2C218.625 94.008 217.649 93.912 216.561 93.912C215.025 93.912 213.649 94.136 212.433 94.584C211.249 95.032 210.177 95.704 209.217 96.6C208.289 97.464 207.441 98.552 206.673 99.864C205.937 101.144 205.265 102.616 204.657 104.28V135H196.065V86.376H200.961C201.889 86.376 202.529 86.552 202.881 86.904C203.233 87.256 203.473 87.864 203.601 88.728L204.177 96.12ZM245.962 135.768C242.122 135.768 239.162 134.696 237.082 132.552C235.034 130.408 234.01 127.32 234.01 123.288V93.528H228.154C227.642 93.528 227.21 93.384 226.858 93.096C226.506 92.776 226.33 92.296 226.33 91.656V88.248L234.298 87.24L236.266 72.216C236.362 71.736 236.57 71.352 236.89 71.064C237.242 70.744 237.69 70.584 238.234 70.584H242.554V87.336H256.618V93.528H242.554V122.712C242.554 124.76 243.05 126.28 244.042 127.272C245.034 128.264 246.314 128.76 247.882 128.76C248.778 128.76 249.546 128.648 250.186 128.424C250.858 128.168 251.434 127.896 251.914 127.608C252.394 127.32 252.794 127.064 253.114 126.84C253.466 126.584 253.77 126.456 254.026 126.456C254.474 126.456 254.874 126.728 255.226 127.272L257.722 131.352C256.25 132.728 254.474 133.816 252.394 134.616C250.314 135.384 248.17 135.768 245.962 135.768ZM303.984 109.464L293.184 81.48C292.864 80.648 292.528 79.688 292.176 78.6C291.824 77.48 291.488 76.296 291.168 75.048C290.496 77.64 289.808 79.8 289.104 81.528L278.304 109.464H303.984ZM323.376 135H316.176C315.344 135 314.672 134.792 314.16 134.376C313.648 133.96 313.264 133.432 313.008 132.792L306.576 116.184H275.712L269.28 132.792C269.088 133.368 268.72 133.88 268.176 134.328C267.632 134.776 266.96 135 266.16 135H258.96L286.464 66.216H295.872L323.376 135ZM338.813 123.288C340.381 125.4 342.093 126.888 343.949 127.752C345.805 128.616 347.885 129.048 350.189 129.048C354.733 129.048 358.221 127.432 360.653 124.2C363.085 120.968 364.301 116.36 364.301 110.376C364.301 107.208 364.013 104.488 363.437 102.216C362.893 99.944 362.093 98.088 361.037 96.648C359.981 95.176 358.685 94.104 357.149 93.432C355.613 92.76 353.869 92.424 351.917 92.424C349.133 92.424 346.685 93.064 344.573 94.344C342.493 95.624 340.573 97.432 338.813 99.768V123.288ZM338.381 93.912C340.429 91.384 342.797 89.352 345.485 87.816C348.173 86.28 351.245 85.512 354.701 85.512C357.517 85.512 360.061 86.056 362.333 87.144C364.605 88.2 366.541 89.784 368.141 91.896C369.741 93.976 370.973 96.568 371.837 99.672C372.701 102.776 373.133 106.344 373.133 110.376C373.133 113.96 372.653 117.304 371.693 120.408C370.733 123.48 369.341 126.152 367.517 128.424C365.725 130.664 363.517 132.44 360.893 133.752C358.301 135.032 355.373 135.672 352.109 135.672C349.133 135.672 346.573 135.176 344.429 134.184C342.317 133.16 340.445 131.752 338.813 129.96V151.464H330.221V86.376H335.357C336.573 86.376 337.325 86.968 337.613 88.152L338.381 93.912ZM392.626 123.288C394.194 125.4 395.906 126.888 397.762 127.752C399.618 128.616 401.698 129.048 404.002 129.048C408.546 129.048 412.034 127.432 414.466 124.2C416.898 120.968 418.114 116.36 418.114 110.376C418.114 107.208 417.826 104.488 417.25 102.216C416.706 99.944 415.906 98.088 414.85 96.648C413.794 95.176 412.498 94.104 410.962 93.432C409.426 92.76 407.682 92.424 405.73 92.424C402.946 92.424 400.498 93.064 398.386 94.344C396.306 95.624 394.386 97.432 392.626 99.768V123.288ZM392.194 93.912C394.242 91.384 396.61 89.352 399.298 87.816C401.986 86.28 405.058 85.512 408.514 85.512C411.33 85.512 413.874 86.056 416.146 87.144C418.418 88.2 420.354 89.784 421.954 91.896C423.554 93.976 424.786 96.568 425.65 99.672C426.514 102.776 426.946 106.344 426.946 110.376C426.946 113.96 426.466 117.304 425.506 120.408C424.546 123.48 423.154 126.152 421.33 128.424C419.538 130.664 417.33 132.44 414.706 133.752C412.114 135.032 409.186 135.672 405.922 135.672C402.946 135.672 400.386 135.176 398.242 134.184C396.13 133.16 394.258 131.752 392.626 129.96V151.464H384.034V86.376H389.17C390.386 86.376 391.138 86.968 391.426 88.152L392.194 93.912Z" fill="#F97316"/>
<g clip-path="url(#clip0_211_12680)">
<path d="M479.755 50.6725C474.111 46.936 466.302 44.1045 461.168 51.8591L451.231 66.868C446.098 74.6227 451.754 80.7062 457.398 84.4427C463.042 88.1792 470.852 91.0108 475.986 83.2561L485.922 68.2472C491.056 60.4926 485.399 54.409 479.755 50.6725ZM445.561 28.0351C439.917 24.2986 432.108 21.467 426.974 29.2216L417.037 44.2306C411.904 51.9852 417.56 58.0688 423.204 61.8052C428.848 65.5417 436.658 68.3733 441.792 60.6187L451.728 45.6097C456.862 37.8551 451.205 31.7716 445.561 28.0351ZM457.442 57.4874L448.002 51.2381L445.518 54.9903L454.957 61.2397L457.442 57.4874ZM480.754 87.3121C479.4 86.4162 478.841 84.8228 479.52 83.7972L487.801 71.2897C488.48 70.2641 490.165 70.1565 491.518 71.0524C492.871 71.9483 493.43 73.5417 492.751 74.5673L484.471 87.0748C483.792 88.1004 482.107 88.208 480.754 87.3121ZM411.441 41.4254C410.088 40.5295 409.529 38.9361 410.208 37.9105L418.488 25.403C419.167 24.3774 420.853 24.2698 422.206 25.1657C423.559 26.0616 424.118 27.655 423.439 28.6806L415.159 41.1881C414.48 42.2137 412.795 42.3213 411.441 41.4254Z" fill="#F97316"/>
</g>
<defs>
<clipPath id="clip0_211_12680">
<rect width="95" height="72" fill="white" transform="translate(431.745) rotate(33.5057)"/>
</clipPath>
</defs>
</svg>
