<svg width="24" height="24" viewBox="0 0 24 24" fill="none" xmlns="http://www.w3.org/2000/svg">
<g clip-path="url(#clip0_622_2384)">
<path d="M8.66667 3.33334H2.66667C1.95942 3.33334 1.28115 3.61429 0.781049 4.11439C0.280952 4.61449 0 5.29277 0 6.00001L0 12H8.66667V3.33334ZM5.558 9.52801L4.30333 8.61668L3.04867 9.52801L3.528 8.05334L2.27333 7.14134H3.824L4.30333 5.66668L4.78267 7.14134H6.33333L5.07867 8.05334L5.558 9.52801Z" fill="#1F429B"/>
<path d="M21.3332 3.33334H8.6665V12H23.9998V6.00001C23.9998 5.29277 23.7189 4.61449 23.2188 4.11439C22.7187 3.61429 22.0404 3.33334 21.3332 3.33334Z" fill="#EEEEEE"/>
<path d="M0 12V18C0 18.7072 0.280952 19.3855 0.781049 19.8856C1.28115 20.3857 1.95942 20.6667 2.66667 20.6667H21.3333C22.0406 20.6667 22.7189 20.3857 23.219 19.8856C23.719 19.3855 24 18.7072 24 18V12H0Z" fill="#D42D27"/>
<path d="M4.78277 7.14132L4.30344 5.66666L3.8241 7.14132H2.27344L3.5281 8.05332L3.04877 9.52799L4.30344 8.61666L5.5581 9.52799L5.07877 8.05332L6.33344 7.14132H4.78277Z" fill="white"/>
</g>
<defs>
<clipPath id="clip0_622_2384">
<rect width="24" height="24" fill="white"/>
</clipPath>
</defs>
</svg>
